<svg width="24" height="25" viewBox="0 0 24 25" fill="none" xmlns="http://www.w3.org/2000/svg">
<path fill-rule="evenodd" clip-rule="evenodd" d="M1.75444 22.8646C3.50887 24.619 6.3326 24.619 11.9801 24.619C17.6275 24.619 20.4513 24.619 22.2056 22.8646C23.9601 21.1102 23.9601 18.2864 23.9601 12.639C23.9601 6.99153 23.9601 4.16781 22.2056 2.41338C20.4513 0.658936 17.6275 0.658936 11.9801 0.658936C6.3326 0.658936 3.50887 0.658936 1.75444 2.41338C0 4.16781 0 6.99153 0 12.639C0 18.2864 0 21.1102 1.75444 22.8646ZM12.8785 9.0449C12.8785 8.54868 12.4762 8.1464 11.98 8.1464C11.4838 8.1464 11.0815 8.54868 11.0815 9.0449V11.7404H8.38597C7.88974 11.7404 7.48746 12.1427 7.48746 12.6389C7.48746 13.1351 7.88974 13.5374 8.38597 13.5374H11.0815V16.2329C11.0815 16.7291 11.4838 17.1314 11.98 17.1314C12.4762 17.1314 12.8785 16.7291 12.8785 16.2329V13.5374H15.574C16.0702 13.5374 16.4725 13.1351 16.4725 12.6389C16.4725 12.1427 16.0702 11.7404 15.574 11.7404H12.8785V9.0449Z" fill="white"/>
</svg>
