<svg width="28" height="28" viewBox="0 0 28 28" fill="none" xmlns="http://www.w3.org/2000/svg">
<path fill-rule="evenodd" clip-rule="evenodd" d="M12.1376 26.2263L12.4586 25.6842C12.9728 24.8153 13.23 24.3809 13.6396 24.1386C14.0493 23.8962 14.5835 23.8791 15.6522 23.8449C16.6542 23.8129 17.3278 23.7254 17.9035 23.487C19.1159 22.9847 20.0791 22.0215 20.5812 20.8092C20.958 19.8999 20.958 18.7473 20.958 16.4418V15.4523C20.958 12.213 20.958 10.5934 20.2288 9.4036C19.8208 8.73784 19.261 8.1781 18.5953 7.77012C17.4056 7.04102 15.7859 7.04102 12.5466 7.04102H9.57799C6.33874 7.04102 4.71912 7.04102 3.52933 7.77012C2.86357 8.1781 2.30383 8.73784 1.89586 9.4036C1.16675 10.5934 1.16675 12.213 1.16675 15.4523V16.4418C1.16675 18.7473 1.16675 19.8999 1.54337 20.8092C2.04555 22.0215 3.00875 22.9847 4.2211 23.487C4.79692 23.7254 5.47037 23.8129 6.4724 23.8449C7.54104 23.8791 8.07536 23.8962 8.48499 24.1386C8.89463 24.3809 9.15178 24.8153 9.66608 25.6842L9.98698 26.2263C10.4651 27.0341 11.6595 27.0341 12.1376 26.2263ZM15.3917 16.9366C16.0748 16.9366 16.6286 16.3828 16.6286 15.6996C16.6286 15.0165 16.0748 14.4627 15.3917 14.4627C14.7085 14.4627 14.1547 15.0165 14.1547 15.6996C14.1547 16.3828 14.7085 16.9366 15.3917 16.9366ZM12.2993 15.6996C12.2993 16.3828 11.7455 16.9366 11.0623 16.9366C10.3792 16.9366 9.82539 16.3828 9.82539 15.6996C9.82539 15.0165 10.3792 14.4627 11.0623 14.4627C11.7455 14.4627 12.2993 15.0165 12.2993 15.6996ZM6.73301 16.9366C7.41616 16.9366 7.96997 16.3828 7.96997 15.6996C7.96997 15.0165 7.41616 14.4627 6.73301 14.4627C6.04987 14.4627 5.49606 15.0165 5.49606 15.6996C5.49606 16.3828 6.04987 16.9366 6.73301 16.9366Z" fill="white"/>
<path opacity="0.5" d="M18.0669 1.16675C19.545 1.16674 20.7203 1.16673 21.6629 1.25636C22.6294 1.34826 23.4467 1.54089 24.1747 1.987C24.9237 2.44597 25.5533 3.07568 26.0123 3.82466C26.4584 4.55264 26.651 5.36984 26.743 6.33639C26.8326 7.279 26.8326 8.45442 26.8326 9.93242V10.9419C26.8326 11.9938 26.8326 12.8305 26.7862 13.5089C26.7389 14.2031 26.6401 14.799 26.4088 15.3571C25.8439 16.7211 24.7603 17.8047 23.3964 18.3696C23.3623 18.3837 23.328 18.3974 23.2936 18.4105C23.129 18.4734 22.9878 18.5274 22.864 18.5676H20.9389C20.9578 17.9854 20.9578 17.2921 20.9578 16.4419V15.4523C20.9578 12.2131 20.9578 10.5935 20.2286 9.40368C19.8207 8.73792 19.2609 8.17818 18.5952 7.77021C17.4054 7.0411 15.7857 7.0411 12.5465 7.0411H9.57783C8.42819 7.0411 7.48256 7.0411 6.68774 7.07369V5.14823C6.72591 5.01598 6.7782 4.86439 6.83956 4.68646C6.94394 4.38384 7.07586 4.09764 7.24315 3.82466C7.70211 3.07568 8.33182 2.44597 9.0808 1.987C9.80878 1.54089 10.626 1.34826 11.5925 1.25636C12.5352 1.16673 13.7105 1.16674 15.1885 1.16675H18.0669Z" fill="#8B8B8B"/>
</svg>
