<svg width="30" height="30" viewBox="0 0 30 30" fill="none" xmlns="http://www.w3.org/2000/svg">
<path d="M10.1328 22.8086C6.62274 20.1042 2.5 16.9278 2.5 11.4214C2.5 5.34276 9.3752 1.03189 15 6.87585L17.5 9.37416C17.8661 9.74021 18.4597 9.7401 18.8259 9.37391C19.1919 9.00774 19.1917 8.41415 18.8256 8.0481L16.4106 5.63396C21.7106 1.75393 27.5 5.84338 27.5 11.4214C27.5 16.9278 23.3772 20.1042 19.8671 22.8086C19.5024 23.0897 19.1441 23.3657 18.7979 23.6387C17.5 24.6618 16.25 25.6251 15 25.6251C13.75 25.6251 12.5 24.6618 11.2022 23.6387C10.8559 23.3657 10.4977 23.0897 10.1328 22.8086Z" fill="white"/>
</svg>
