<svg width="27" height="26" viewBox="0 0 27 26" fill="none" xmlns="http://www.w3.org/2000/svg">
<path d="M24.7935 13.0001C24.7935 7.01699 19.9432 2.16675 13.9602 2.16675C7.97708 2.16675 3.12683 7.01699 3.12683 13.0001C3.12683 18.9831 7.97708 23.8334 13.9602 23.8334C19.9432 23.8334 24.7935 18.9831 24.7935 13.0001Z" fill="white"/>
<path d="M13.9602 6.77075C14.4089 6.77075 14.7727 7.13452 14.7727 7.58325V14.0833C14.7727 14.532 14.4089 14.8958 13.9602 14.8958C13.5115 14.8958 13.1477 14.532 13.1477 14.0833V7.58325C13.1477 7.13452 13.5115 6.77075 13.9602 6.77075Z" fill="#515151"/>
<path d="M13.9602 18.4167C14.5585 18.4167 15.0435 17.9317 15.0435 17.3333C15.0435 16.735 14.5585 16.25 13.9602 16.25C13.3618 16.25 12.8768 16.735 12.8768 17.3333C12.8768 17.9317 13.3618 18.4167 13.9602 18.4167Z" fill="#515151"/>
</svg>
