<svg width="31" height="30" viewBox="0 0 31 30" fill="none" xmlns="http://www.w3.org/2000/svg">
<path d="M16.6571 21.8771C16.4792 22.0747 16.226 22.1875 15.9602 22.1875C15.6945 22.1875 15.4412 22.0747 15.2633 21.8771L11.5134 17.7105C11.167 17.3256 11.1982 16.7329 11.5831 16.3865C11.9679 16.0401 12.5607 16.0714 12.9071 16.4561L15.0227 18.8069V8.75002H5.96021C5.77152 8.75006 5.51671 8.7501 5.33521 8.74756V16.25C5.33521 20.9641 5.3352 23.3211 6.79967 24.7855C8.26414 26.25 10.6212 26.25 15.3352 26.25H16.5852C21.2992 26.25 23.6563 26.25 25.1207 24.7855C26.5852 23.3211 26.5852 20.9641 26.5852 16.25V8.74756C26.4037 8.7501 26.1488 8.75006 25.9602 8.75002H16.8977V18.8069L19.0133 16.4561C19.3597 16.0714 19.9525 16.0401 20.3373 16.3865C20.7222 16.7329 20.7535 17.3256 20.4071 17.7105L16.6571 21.8771Z" fill="white"/>
<path d="M3.46021 6.25C3.46021 5.07149 3.46021 4.48224 3.82632 4.11611C4.19244 3.75 4.78169 3.75 5.9602 3.75H25.9602C27.1387 3.75 27.728 3.75 28.0941 4.11611C28.4602 4.48224 28.4602 5.07149 28.4602 6.25C28.4602 7.42851 28.4602 8.01776 28.0941 8.38389C27.728 8.75 27.1387 8.75 25.9602 8.75H5.9602C4.78169 8.75 4.19244 8.75 3.82632 8.38389C3.46021 8.01776 3.46021 7.42851 3.46021 6.25Z" fill="#515151"/>
</svg>
